# xmcd
#
# Track frame offsets:
#	150
#	13804
#	26729
#	37338
#	49354
#	59256
#	74250
#	87708
#	99592
#	112395
#	124885
#	136385
#	146652
#	158522
#	168048
#	178699
#	189447
#	208192
#	222218
#	236324
#	248960
#	259402
#	276524
#	293051
#	303423
#	319699
#	331224
#	341255
#	352282
#
# Disc length: 4897 seconds
#
# Revision: 1
# Processed by: cddbd v1.5.2PL0 Copyright (c) Steve Scherf et al.
# Submitted via: audiograbber 1.83.01
#
DISCID=d0131f1d
DTITLE=Gehan Gunasekera - All The Way
DYEAR=2007
DGENRE=Easy Listening
TTITLE0=All The Way
TTITLE1=You're My Best Friend
TTITLE2=You're The Only Good Thing
TTITLE3=Am I Losing You
TTITLE4=Blue Boy
TTITLE5=Blue Side Of Lonesome
TTITLE6=Can't Help Falling In Love
TTITLE7=Dark Moon
TTITLE8=Distant Drums
TTITLE9=Don't
TTITLE10=Dream Lover
TTITLE11=Eighteen Yellow Roses
TTITLE12=Have You Ever Been Lonely
TTITLE13=Hawaiian Wedding Song
TTITLE14=He'll Have To Go
TTITLE15=Hey Jealous Lover
TTITLE16=I Believe In You
TTITLE17=I Fall To Pieces
TTITLE18=I Recall A Gypsy Woman
TTITLE19=I'm Looking Out The Window
TTITLE20=Judy
TTITLE21=Just The Way You Look Tonight
TTITLE22=Let's Fall In Love
TTITLE23=Memories Are Made Of This
TTITLE24=Say You'll Stay Until Tomorrow
TTITLE25=Sentimental Me
TTITLE26=The Ways Of A Woman In Love
TTITLE27=Once In Awhile
TTITLE28=Can I Depend On Your Love
EXTD=
EXTT0=
EXTT1=
EXTT2=
EXTT3=
EXTT4=
EXTT5=
EXTT6=
EXTT7=
EXTT8=
EXTT9=
EXTT10=
EXTT11=
EXTT12=
EXTT13=
EXTT14=
EXTT15=
EXTT16=
EXTT17=
EXTT18=
EXTT19=
EXTT20=
EXTT21=
EXTT22=
EXTT23=
EXTT24=
EXTT25=
EXTT26=
EXTT27=
EXTT28=
PLAYORDER=
